/* XPM */
static char * coinaaa32_xpm[] = {
"32 32 91 1",
" 	c None",
".	c #D80000",
"+	c #D80404",
"@	c #D70000",
"#	c #E86A6A",
"$	c #EA7575",
"%	c #DE2626",
"&	c #F8D4D4",
"*	c #F8CFCF",
"=	c #D90A0A",
"-	c #F8D0D0",
";	c #FFFFFF",
">	c #F5BDBD",
",	c #F9D9D9",
"'	c #ED8E8E",
")	c #E23E3E",
"!	c #E65B5B",
"~	c #EB7979",
"{	c #EB7C7C",
"]	c #EB7878",
"^	c #E76262",
"/	c #E13B3B",
"(	c #DD2121",
"_	c #DF3030",
":	c #F6C0C0",
"<	c #DA0A0A",
"[	c #FEFBFB",
"}	c #E55454",
"|	c #D60000",
"1	c #F1A1A1",
"2	c #F6C4C4",
"3	c #DF2A2A",
"4	c #D80101",
"5	c #ED8888",
"6	c #FAE1E1",
"7	c #EC7E7E",
"8	c #E96F6F",
"9	c #D80303",
"0	c #FEF4F4",
"a	c #F8D2D2",
"b	c #F19D9D",
"c	c #DA0B0B",
"d	c #E13939",
"e	c #F4B3B3",
"f	c #E55656",
"g	c #F6C5C5",
"h	c #FEF7F7",
"i	c #ED8484",
"j	c #EC8383",
"k	c #DD1F1F",
"l	c #D50000",
"m	c #FEF8F8",
"n	c #F3B0B0",
"o	c #EA7373",
"p	c #EA7272",
"q	c #E03535",
"r	c #DB1313",
"s	c #E34848",
"t	c #FAE0E0",
"u	c #E65959",
"v	c #DB1212",
"w	c #DF2B2B",
"x	c #E96C6C",
"y	c #EB7A7A",
"z	c #F5BCBC",
"A	c #DC1B1B",
"B	c #FBE6E6",
"C	c #DB1515",
"D	c #E24545",
"E	c #F9D5D5",
"F	c #F09D9D",
"G	c #FADDDD",
"H	c #F2A6A6",
"I	c #DA0D0D",
"J	c #F5BABA",
"K	c #EF9595",
"L	c #E03131",
"M	c #D90505",
"N	c #FCEBEB",
"O	c #F7CBCB",
"P	c #F0A0A0",
"Q	c #D80202",
"R	c #E03333",
"S	c #F4B9B9",
"T	c #F4B4B4",
"U	c #E86666",
"V	c #E86868",
"W	c #E55353",
"X	c #FBE4E4",
"Y	c #D90606",
"Z	c #F5BBBB",
"              ....              ",
"          ............          ",
"        ................        ",
"       ..................       ",
"     .............+........     ",
"    ............@#$.........    ",
"    ............%&*@........    ",
"   ............=-;>..........   ",
"  ............@,;',)..........  ",
"  ...........@!~{]-^..........  ",
" ............/;;(_;:@.......... ",
" ...........<[;}.@;;|.......... ",
" ..........@-;1@.@2;3.......... ",
" ......4|@@5;6@...7;8.......... ",
".......90ab;;c@...d;e@..........",
".......fgh;;>;ij^kl;m|..........",
"........lg;no8pqrsot;uv|@.......",
" .......7;t@.@|wxyzh;;;h2A..... ",
" ......@|BC.......@D;EFGH@..... ",
" .....IJKL.........M;Nl|@...... ",
" ....@EOP@.........|G;Q........ ",
" ....RST@...........UV@........ ",
"  ....@@............WX8.......  ",
"  ..................Y;G|......  ",
"   .................@Z;M.....   ",
"    .................@|M....    ",
"     ......................     ",
"      ....................      ",
"       ..................       ",
"        ................        ",
"           ..........           ",
"                                "};
