/* XPM */
static char * coinaaa16_xpm[] = {
"16 16 46 1",
" 	c None",
".	c #D80000",
"+	c #DB1616",
"@	c #DC1C1C",
"#	c #D70000",
"$	c #F5C1C1",
"%	c #E75F5F",
"&	c #E86868",
"*	c #F1A5A5",
"=	c #EF9797",
"-	c #E34949",
";	c #FDF3F3",
">	c #FFFFFF",
",	c #D60000",
"'	c #DB0F0F",
")	c #DC1818",
"!	c #FBE4E4",
"~	c #DC1E1E",
"{	c #DB1111",
"]	c #FEF5F5",
"^	c #FDF4F4",
"/	c #F4B5B5",
"(	c #E13A3A",
"_	c #DD1F1F",
":	c #EE9090",
"<	c #E76161",
"[	c #EE8E8E",
"}	c #F2A7A7",
"|	c #DF2E2E",
"1	c #E03636",
"2	c #E55555",
"3	c #F7C7C7",
"4	c #FBE0E0",
"5	c #ED8686",
"6	c #DF2C2C",
"7	c #E96D6D",
"8	c #D80202",
"9	c #E45050",
"0	c #DD2424",
"a	c #D90404",
"b	c #FADCDC",
"c	c #F5BCBC",
"d	c #F09D9D",
"e	c #E44C4C",
"f	c #DE2525",
"g	c #E44949",
"      ....      ",
"    ........    ",
"  ......+@....  ",
"  .....#$%....  ",
" .....#&*=#.... ",
" .....-;.>,.... ",
"....,'>),!~.....",
"...{]^/(_:<.....",
"...#[}|123451...",
"...67#..#8>90...",
" .ab_....,c,... ",
" ..,......de... ",
"  ........fg..  ",
"   ..........   ",
"    ........    ",
"      ....      "};
