/* XPM */
static char * coinaaa64_xpm[] = {
"64 64 178 2",
"  	c None",
". 	c #D80000",
"+ 	c #D90505",
"@ 	c #DC1818",
"# 	c #D60000",
"$ 	c #F4B5B5",
"% 	c #EF9393",
"& 	c #D70000",
"* 	c #E96E6E",
"= 	c #EE8989",
"- 	c #FFFFFF",
"; 	c #DE2626",
"> 	c #DE2727",
", 	c #F3AEAE",
"' 	c #FCE8E8",
") 	c #E96B6B",
"! 	c #ED8686",
"~ 	c #F3AFAF",
"{ 	c #F2A5A5",
"] 	c #F2A6A6",
"^ 	c #E96C6C",
"/ 	c #FFFEFE",
"( 	c #EA7272",
"_ 	c #E76767",
": 	c #EA7070",
"< 	c #DD2323",
"[ 	c #EF9A9A",
"} 	c #FCEAEA",
"| 	c #E65D5D",
"1 	c #D90404",
"2 	c #FDF3F3",
"3 	c #F9DADA",
"4 	c #D30000",
"5 	c #F6C2C2",
"6 	c #EE8C8C",
"7 	c #F2AAAA",
"8 	c #D80101",
"9 	c #E24040",
"0 	c #EC8282",
"a 	c #F5BEBE",
"b 	c #FDF4F4",
"c 	c #DB1515",
"d 	c #EE8D8D",
"e 	c #EA7979",
"f 	c #E86666",
"g 	c #F7C8C8",
"h 	c #E55050",
"i 	c #F9D9D9",
"j 	c #D90A0A",
"k 	c #DD2424",
"l 	c #F1A4A4",
"m 	c #FCEDED",
"n 	c #FADFDF",
"o 	c #E44E4E",
"p 	c #EF9494",
"q 	c #D90808",
"r 	c #E86868",
"s 	c #FBE2E2",
"t 	c #F09C9C",
"u 	c #E24343",
"v 	c #FDEEEE",
"w 	c #FADEDE",
"x 	c #E65757",
"y 	c #ED8787",
"z 	c #F4B6B6",
"A 	c #DB1313",
"B 	c #DA1010",
"C 	c #F7CBCB",
"D 	c #E44C4C",
"E 	c #FCEBEB",
"F 	c #EF9595",
"G 	c #FDF0F0",
"H 	c #F3B2B2",
"I 	c #EA7878",
"J 	c #E13D3D",
"K 	c #E02F2F",
"L 	c #F1A5A5",
"M 	c #E03535",
"N 	c #E34444",
"O 	c #FCE9E9",
"P 	c #E75F5F",
"Q 	c #EB7979",
"R 	c #DB1717",
"S 	c #F2A9A9",
"T 	c #E86969",
"U 	c #DF2D2D",
"V 	c #DC1919",
"W 	c #E65E5E",
"X 	c #EF9999",
"Y 	c #F8D4D4",
"Z 	c #FEFCFC",
"` 	c #EE8E8E",
" .	c #F7CDCD",
"..	c #E65A5A",
"+.	c #EB7E7E",
"@.	c #F5BFBF",
"#.	c #FFFCFC",
"$.	c #FBE4E4",
"%.	c #F1A2A2",
"&.	c #E76161",
"*.	c #DE2525",
"=.	c #D40000",
"-.	c #DD1C1C",
";.	c #FCECEC",
">.	c #E76262",
",.	c #DD2525",
"'.	c #DA0C0C",
").	c #E34848",
"!.	c #ED8585",
"~.	c #F7C7C7",
"{.	c #DE2424",
"].	c #E03333",
"^.	c #E97070",
"/.	c #F3B1B1",
"(.	c #FCEEEE",
"_.	c #FBE5E5",
":.	c #E76464",
"<.	c #D90707",
"[.	c #ED8989",
"}.	c #F9D6D6",
"|.	c #E55252",
"1.	c #DC1616",
"2.	c #F4B8B8",
"3.	c #DB1111",
"4.	c #E13939",
"5.	c #EA7777",
"6.	c #F4B9B9",
"7.	c #FDF2F2",
"8.	c #FEF8F8",
"9.	c #FFFBFB",
"0.	c #F6BFBF",
"a.	c #E44A4A",
"b.	c #E13B3B",
"c.	c #FDEDED",
"d.	c #EB7F7F",
"e.	c #F4B7B7",
"f.	c #E76363",
"g.	c #D50000",
"h.	c #FFFDFD",
"i.	c #DD1F1F",
"j.	c #FAD9D9",
"k.	c #EC8585",
"l.	c #E45050",
"m.	c #EE8B8B",
"n.	c #F6C6C6",
"o.	c #E13E3E",
"p.	c #E23D3D",
"q.	c #F1A3A3",
"r.	c #FDF1F1",
"s.	c #DC1D1D",
"t.	c #FBE8E8",
"u.	c #EF9292",
"v.	c #F8CECE",
"w.	c #FDEFEF",
"x.	c #F7CACA",
"y.	c #F9D8D8",
"z.	c #DC1717",
"A.	c #F6C7C7",
"B.	c #FEF5F5",
"C.	c #EF9797",
"D.	c #DA0E0E",
"E.	c #E65959",
"F.	c #DA0808",
"G.	c #E24242",
"H.	c #EC7D7D",
"I.	c #E34646",
"J.	c #F8D1D1",
"K.	c #F09797",
"L.	c #D90303",
"M.	c #E24141",
"N.	c #ED8888",
"O.	c #F7CCCC",
"P.	c #F8D2D2",
"Q.	c #F2ABAB",
"R.	c #FBE6E6",
"S.	c #E13A3A",
"T.	c #D90202",
"U.	c #DB1414",
"                                                                                                                                ",
"                                                  . . . . . . . . . . . . . .                                                   ",
"                                          . . . . . . . . . . . . . . . . . . . . . .                                           ",
"                                      . . . . . . . . . . . . . . . . . . . . . . . . . .                                       ",
"                                  . . . . . . . . . . . . . . . . . . . . . . . . . . . . . .                                   ",
"                              . . . . . . . . . . . . . . . . . . . . . . . . . . . . . . . . . .                               ",
"                            . . . . . . . . . . . . . . . . . . . . . . . . . . . . . . . . . . . .                             ",
"                          . . . . . . . . . . . . . . . . . . . . . . . . . . . . . . . . . . . . . .                           ",
"                      . . . . . . . . . . . . . . . . . . . . . . . . . . . . . . . . . . . . . . . . . .                       ",
"                    . . . . . . . . . . . . . . . . . . . . . . . . . + @ . . . . . . . . . . . . . . . . .                     ",
"                  . . . . . . . . . . . . . . . . . . . . . . . . . # $ % & . . . . . . . . . . . . . . . . .                   ",
"                . . . . . . . . . . . . . . . . . . . . . . . . . . * = - ; . . . . . . . . . . . . . . . . . .                 ",
"                . . . . . . . . . . . . . . . . . . . . . . . . . > , ' - ) . . . . . . . . . . . . . . . . . .                 ",
"              . . . . . . . . . . . . . . . . . . . . . . . . . . ! ~ - - { & . . . . . . . . . . . . . . . . . .               ",
"            . . . . . . . . . . . . . . . . . . . . . . . . . # ] ^ - - / ( # . . . . . . . . . . . . . . . . . . .             ",
"          . . . . . . . . . . . . . . . . . . . . . . . . . . _ - - - - : - @ . . . . . . . . . . . . . . . . . . . .           ",
"          . . . . . . . . . . . . . . . . . . . . . . . . . < - - - - [ } - | . . . . . . . . . . . . . . . . . . . .           ",
"        . . . . . . . . . . . . . . . . . . . . . . . . . 1 2 - - - 3 4 5 6 7 & . . . . . . . . . . . . . . . . . . . .         ",
"        . . . . . . . . . . . . . . . . . . . . . . . . & 8 9 0 a b c - 7 d e & . . . . . . . . . . . . . . . . . . . .         ",
"      . . . . . . . . . . . . . . . . . . . . . . . . . f - g d h # & i - - - j . . . . . . . . . . . . . . . . . . . . .       ",
"      . . . . . . . . . . . . . . . . . . . . . . . . k - - - - l & . % - - - h . . . . . . . . . . . . . . . . . . . . .       ",
"      . . . . . . . . . . . . . . . . . . . . . . . . m - - - n & . . o - - - p . . . . . . . . . . . . . . . . . . . . .       ",
"    . . . . . . . . . . . . . . . . . . . . . . . # $ - - - - c . . . q - - - i # . . . . . . . . . . . . . . . . . . . . .     ",
"    . . . . . . . . . . . . . . . . . . . . . . . r - - - - o . . . . # s - - - . . . . . . . . . . . . . . . . . . . . . .     ",
"    . . . . . . . . . . . . . . . . . . . . . . k - - - - t & . . . . . t - - - u . . . . . . . . . . . . . . . . . . . . .     ",
"    . . . . . . . . . . . . . . . . . . . . . . v - - - w & . . . . . . x - - - y . . . . . . . . . . . . . . . . . . . . . .   ",
"  . . . . . . . . . . . . . . . . . . . . . # z - - - - A . . . . . . . B - - - C & . . . . . . . . . . . . . . . . . . . . .   ",
"  . . . . . . . . . . . . . . . & # & . . . r - - - - D . . . . . . . . # E - - - & . . . . . . . . . . . . . . . . . . . . .   ",
"  . . . . . . . . . . . . . . & F G H I J K - - - - [ & . . . . . . . . & L - - - M . . . . . . . . . . . . . . . . . . . . .   ",
"  . . . . . . . . . . . . . . N - - - - - - - - - O & # & . . . . . . . . P - - - Q . . . . . . . . . . . . . . . . . . . . .   ",
"  . . . . . . . . . . . . . R - - - - - - - - - - - - w S T U & # . . . . V - - - a & . . . . . . . . . . . . . . . . . . . .   ",
"  . . . . . . . . . . . . . . < W X Y Z - - - - Q `  .- ..+.@.#.$.%.&.*.# =.2 - - - # . . . . . . . . . . . . . . . . . . . .   ",
"  . . . . . . . . . . . . . . . . . -.- - - - ;.} 7 >.,.& # & # '.).!.~.- i } - - - {.. . . . . . . . . . . . . . . . . . . .   ",
"  . . . . . . . . . . . . . . . . . v - - - i # & ].^./.(._.L :.> # # & # <.[.- - - }.6 |.1.# & . . . . . . . . . . . . . . .   ",
"  . . . . . . . . . . . . . . . # 2.- - - - 3.. . . . & # . 4.5.6.7.n t ! 8.g - - - - - - - 9.0.! a.A . . . . . . . . . . . .   ",
"  . . . . . . . . . . . . . . . b.c.- - - ).. . . . . . . . . . & # + 9 d.e.2 - - - - - - - - - - - f.. . . . . . . . . . . .   ",
"  . . . . . . . . . . . . . . . . # :.- p & . . . . . . . . . . . . . . . & g. .- - - h.- - - - - ] & . . . . . . . . . . . .   ",
"  . . . . . . . . . . . . . . . . i.- j.& . . . . . . . . . . . . . . . . . . k.- - - |.c l.m.n.w & . . . . . . . . . . . . .   ",
"    . . . . . . . . . . . & T o.. D /.A . . . . . . . . . . . . . . . . . . . p.- - - q.& . . & # . . . . . . . . . . . . .     ",
"    . . . . . . . . . . . ) - - - r.s.. . . . . . . . . . . . . . . . . . . . & - - - t.# . . . . . . . . . . . . . . . . .     ",
"    . . . . . . . . . . > - - - - u.& . . . . . . . . . . . . . . . . . . . . & v.- - - '.. . . . . . . . . . . . . . . . .     ",
"    . . . . . . . . . . w.- * x.y.& . . . . . . . . . . . . . . . . . . . . . . ! - - - z.. . . . . . . . . . . . . . . . .     ",
"      . . . . . . . & A.- B.C.- D.. . . . . . . . . . . . . . . . . . . . . . . 9 - - E.. . . . . . . . . . . . . . . . .       ",
"      . . . . . . . . F.G.H.a I.. . . . . . . . . . . . . . . . . . . . . . . . 8 I.&.# . . . . . . . . . . . . . . . . .       ",
"        . . . . . . . . . . & . . . . . . . . . . . . . . . . . . . . . . . . . # i J.K.W L.. . . . . . . . . . . . . .         ",
"        . . . . . . . . . . . . . . . . . . . . . . . . . . . . . . . . . . . . . [.- - - N . . . . . . . . . . . . . .         ",
"          . . . . . . . . . . . . . . . . . . . . . . . . . . . . . . . . . . . . M.- - - N.. . . . . . . . . . . . .           ",
"          . . . . . . . . . . . . . . . . . . . . . . . . . . . . . . . . . . . . . - - - O.& . . . . . . . . . . . .           ",
"            . . . . . . . . . . . . . . . . . . . . . . . . . . . . . . . . . . . & P.- - - & . . . . . . . . . . .             ",
"            . . . . . . . . . . . . . . . . . . . . . . . . . . . . . . . . . . . . ).Q.R.- S.. . . . . . . . . . .             ",
"              . . . . . . . . . . . . . . . . . . . . . . . . . . . . . . . . . . . . & # T.U.. . . . . . . . . .               ",
"                . . . . . . . . . . . . . . . . . . . . . . . . . . . . . . . . . . . . . . . . . . . . . . . .                 ",
"                  . . . . . . . . . . . . . . . . . . . . . . . . . . . . . . . . . . . . . . . . . . . . . .                   ",
"                    . . . . . . . . . . . . . . . . . . . . . . . . . . . . . . . . . . . . . . . . . . . .                     ",
"                      . . . . . . . . . . . . . . . . . . . . . . . . . . . . . . . . . . . . . . . . . .                       ",
"                        . . . . . . . . . . . . . . . . . . . . . . . . . . . . . . . . . . . . . . . .                         ",
"                          . . . . . . . . . . . . . . . . . . . . . . . . . . . . . . . . . . . . . .                           ",
"                            . . . . . . . . . . . . . . . . . . . . . . . . . . . . . . . . . . . .                             ",
"                                . . . . . . . . . . . . . . . . . . . . . . . . . . . . . . . .                                 ",
"                                    . . . . . . . . . . . . . . . . . . . . . . . . . . . .                                     ",
"                                        . . . . . . . . . . . . . . . . . . . . . . . .                                         ",
"                                              . . . . . . . . . . . . . . . . . .                                               ",
"                                                      . . . . . . . . . .                                                       ",
"                                                                                                                                "};
